<?xml version="1.0" standalone="no"?>
<!DOCTYPE svg PUBLIC "-//W3C//DTD SVG 20010904//EN"
 "http://www.w3.org/TR/2001/REC-SVG-20010904/DTD/svg10.dtd">
<svg version="1.0" xmlns="http://www.w3.org/2000/svg"
 width="512.000000pt" height="512.000000pt" viewBox="0 0 512.000000 512.000000"
 preserveAspectRatio="xMidYMid meet">
<metadata>
Created by potrace 1.14, written by Peter Selinger 2001-2017
</metadata>
<g transform="translate(0.000000,512.000000) scale(0.100000,-0.100000)"
fill="#000000" stroke="none">
<path d="M960 3162 c-72 -24 -94 -36 -141 -79 l-39 -35 0 50 c0 40 -4 53 -19
62 -21 11 -120 14 -145 4 -14 -6 -16 -69 -16 -610 l0 -605 88 3 87 3 5 445 c5
417 6 448 25 485 50 100 148 152 270 143 100 -8 182 -65 222 -153 16 -36 19
-84 23 -480 l5 -440 85 0 85 0 5 440 c5 420 6 442 26 485 46 100 151 156 275
148 106 -8 177 -57 221 -153 23 -49 23 -55 26 -487 l3 -438 85 0 85 0 -3 478
c-3 473 -3 477 -26 535 -30 73 -104 149 -179 185 -54 25 -68 27 -183 27 -166
-1 -217 -20 -312 -116 -38 -38 -68 -65 -68 -60 0 5 -22 34 -50 64 -74 81 -145
110 -280 114 -82 2 -117 -1 -160 -15z"/>
<path d="M4293 3170 c-78 -16 -154 -66 -203 -133 l-30 -41 0 75 c0 45 -5 80
-12 87 -13 13 -136 16 -156 4 -10 -7 -12 -135 -10 -608 l3 -599 85 0 85 0 5
410 c5 447 5 442 67 523 60 79 201 128 298 103 71 -18 72 -17 89 58 9 39 16
75 16 80 0 32 -155 59 -237 41z"/>
<path d="M2582 3162 c-10 -7 -12 -104 -10 -478 l3 -469 27 -57 c54 -117 171
-196 319 -219 141 -22 289 19 363 101 l35 39 3 -62 3 -62 85 0 85 0 3 599 c2
473 0 601 -10 608 -20 12 -143 9 -156 -4 -9 -9 -12 -117 -12 -423 0 -465 -2
-480 -70 -557 -55 -63 -123 -91 -222 -91 -66 -1 -85 4 -135 29 -63 32 -114 94
-133 162 -6 23 -10 201 -10 452 0 310 -3 419 -12 428 -14 14 -136 16 -156 4z"/>
</g>
</svg>
